<svg width="40" height="40" viewBox="0 0 40 40" fill="none" xmlns="http://www.w3.org/2000/svg">
<rect width="40" height="40" rx="20" fill="#6E8678"/>
<path d="M30 13.5888C29.2639 13.915 28.4741 14.1362 27.6442 14.2349C28.4915 13.7275 29.1402 12.9227 29.4476 11.9666C28.6527 12.4365 27.7754 12.7777 26.8406 12.9627C26.092 12.1641 25.0271 11.6667 23.8461 11.6667C21.5803 11.6667 19.7431 13.5038 19.7431 15.7684C19.7431 16.0896 19.7794 16.4033 19.8494 16.7032C16.44 16.532 13.4168 14.8986 11.3935 12.4165C11.0398 13.0214 10.8386 13.7262 10.8386 14.4786C10.8386 15.9021 11.5634 17.1581 12.6632 17.893C11.9909 17.8705 11.3585 17.6855 10.8048 17.3781V17.4293C10.8048 19.4164 12.2196 21.0749 14.0955 21.4523C13.7518 21.5448 13.3894 21.5961 13.0144 21.5961C12.7495 21.5961 12.4933 21.5698 12.2421 21.5198C12.7644 23.1508 14.2792 24.3368 16.0739 24.3693C14.6704 25.4691 12.9007 26.1227 10.9786 26.1227C10.6474 26.1227 10.3212 26.1027 10 26.0665C11.8159 27.2325 13.9718 27.9124 16.2888 27.9124C23.8362 27.9124 27.9617 21.6611 27.9617 16.2396L27.9479 15.7084C28.754 15.1335 29.4513 14.4111 30 13.5888Z" fill="#060707"/>
</svg>
